<svg width="200" height="230" viewBox="0 0 200 230" xmlns="http://www.w3.org/2000/svg">
  <!-- Background -->
  <rect width="200" height="200" fill="#ffffff" stroke="#000000" stroke-width="2"/>
  
  <!-- Title -->
  <text x="100" y="15" text-anchor="middle" fill="#000000" font-family="Arial, sans-serif" font-size="12" font-weight="bold">
    Android スペースインベーダー
  </text>
  
  <!-- QR Code for: https://yoshi362678.github.io/space-invaders-mobile/android-game.html -->
  
  <g transform="translate(25, 30)">
    <!-- Position Detection Pattern - Top Left -->
    <rect x="0" y="0" width="50" height="50" fill="#000000"/>
    <rect x="10" y="10" width="30" height="30" fill="#ffffff"/>
    <rect x="20" y="20" width="10" height="10" fill="#000000"/>
    
    <!-- Position Detection Pattern - Top Right -->
    <rect x="100" y="0" width="50" height="50" fill="#000000"/>
    <rect x="110" y="10" width="30" height="30" fill="#ffffff"/>
    <rect x="120" y="20" width="10" height="10" fill="#000000"/>
    
    <!-- Position Detection Pattern - Bottom Left -->
    <rect x="0" y="100" width="50" height="50" fill="#000000"/>
    <rect x="10" y="110" width="30" height="30" fill="#ffffff"/>
    <rect x="20" y="120" width="10" height="10" fill="#000000"/>
    
    <!-- Timing Patterns -->
    <rect x="60" y="60" width="10" height="10" fill="#000000"/>
    <rect x="80" y="60" width="10" height="10" fill="#000000"/>
    
    <rect x="60" y="70" width="10" height="10" fill="#000000"/>
    <rect x="60" y="90" width="10" height="10" fill="#000000"/>
    
    <!-- Data modules (sample pattern for android-game.html URL) -->
    <!-- Row 1 -->
    <rect x="60" y="10" width="10" height="10" fill="#000000"/>
    <rect x="70" y="10" width="10" height="10" fill="#000000"/>
    <rect x="90" y="10" width="10" height="10" fill="#000000"/>
    
    <!-- Row 2 -->
    <rect x="60" y="20" width="10" height="10" fill="#000000"/>
    <rect x="80" y="20" width="10" height="10" fill="#000000"/>
    <rect x="90" y="20" width="10" height="10" fill="#000000"/>
    
    <!-- Row 3 -->
    <rect x="70" y="30" width="10" height="10" fill="#000000"/>
    <rect x="80" y="30" width="10" height="10" fill="#000000"/>
    
    <!-- Data area -->
    <rect x="60" y="80" width="10" height="10" fill="#000000"/>
    <rect x="70" y="80" width="10" height="10" fill="#000000"/>
    <rect x="90" y="80" width="10" height="10" fill="#000000"/>
    <rect x="100" y="80" width="10" height="10" fill="#000000"/>
    <rect x="110" y="80" width="10" height="10" fill="#000000"/>
    <rect x="120" y="80" width="10" height="10" fill="#000000"/>
    <rect x="130" y="80" width="10" height="10" fill="#000000"/>
    <rect x="140" y="80" width="10" height="10" fill="#000000"/>
    
    <rect x="60" y="90" width="10" height="10" fill="#000000"/>
    <rect x="80" y="90" width="10" height="10" fill="#000000"/>
    <rect x="100" y="90" width="10" height="10" fill="#000000"/>
    <rect x="120" y="90" width="10" height="10" fill="#000000"/>
    <rect x="140" y="90" width="10" height="10" fill="#000000"/>
    
    <rect x="70" y="100" width="10" height="10" fill="#000000"/>
    <rect x="80" y="100" width="10" height="10" fill="#000000"/>
    <rect x="90" y="100" width="10" height="10" fill="#000000"/>
    <rect x="110" y="100" width="10" height="10" fill="#000000"/>
    <rect x="130" y="100" width="10" height="10" fill="#000000"/>
    <rect x="140" y="100" width="10" height="10" fill="#000000"/>
    
    <rect x="60" y="110" width="10" height="10" fill="#000000"/>
    <rect x="90" y="110" width="10" height="10" fill="#000000"/>
    <rect x="100" y="110" width="10" height="10" fill="#000000"/>
    <rect x="120" y="110" width="10" height="10" fill="#000000"/>
    <rect x="140" y="110" width="10" height="10" fill="#000000"/>
    
    <rect x="70" y="120" width="10" height="10" fill="#000000"/>
    <rect x="80" y="120" width="10" height="10" fill="#000000"/>
    <rect x="110" y="120" width="10" height="10" fill="#000000"/>
    <rect x="130" y="120" width="10" height="10" fill="#000000"/>
    
    <rect x="60" y="130" width="10" height="10" fill="#000000"/>
    <rect x="70" y="130" width="10" height="10" fill="#000000"/>
    <rect x="90" y="130" width="10" height="10" fill="#000000"/>
    <rect x="110" y="130" width="10" height="10" fill="#000000"/>
    <rect x="120" y="130" width="10" height="10" fill="#000000"/>
    <rect x="140" y="130" width="10" height="10" fill="#000000"/>
    
    <rect x="80" y="140" width="10" height="10" fill="#000000"/>
    <rect x="90" y="140" width="10" height="10" fill="#000000"/>
    <rect x="100" y="140" width="10" height="10" fill="#000000"/>
    <rect x="130" y="140" width="10" height="10" fill="#000000"/>
    <rect x="140" y="140" width="10" height="10" fill="#000000"/>
  </g>
  
  <!-- Instructions -->
  <text x="100" y="220" text-anchor="middle" fill="#333333" font-family="Arial, sans-serif" font-size="10">
    QRコードをスキャンしてゲームを開始
  </text>
</svg>