<svg width="300" height="300" viewBox="0 0 300 300" xmlns="http://www.w3.org/2000/svg">
  <defs>
    <style>
      .qr-bg { fill: #ffffff; }
      .qr-fg { fill: #000000; }
      .qr-pixel { width: 10px; height: 10px; }
    </style>
  </defs>
  
  <!-- Background -->
  <rect width="300" height="300" class="qr-bg"/>
  
  <!-- QR Code Pattern for: https://yoshi362678.github.io/space-invaders-mobile/index.html -->
  
  <!-- Position Detection Patterns (Corners) -->
  <!-- Top-Left -->
  <rect x="20" y="20" width="70" height="70" class="qr-fg"/>
  <rect x="30" y="30" width="50" height="50" class="qr-bg"/>
  <rect x="40" y="40" width="30" height="30" class="qr-fg"/>
  
  <!-- Top-Right -->
  <rect x="210" y="20" width="70" height="70" class="qr-fg"/>
  <rect x="220" y="30" width="50" height="50" class="qr-bg"/>
  <rect x="230" y="40" width="30" height="30" class="qr-fg"/>
  
  <!-- Bottom-Left -->
  <rect x="20" y="210" width="70" height="70" class="qr-fg"/>
  <rect x="30" y="220" width="50" height="50" class="qr-bg"/>
  <rect x="40" y="230" width="30" height="30" class="qr-fg"/>
  
  <!-- Timing Patterns -->
  <!-- Horizontal -->
  <rect x="100" y="60" width="10" height="10" class="qr-fg"/>
  <rect x="120" y="60" width="10" height="10" class="qr-fg"/>
  <rect x="140" y="60" width="10" height="10" class="qr-fg"/>
  <rect x="160" y="60" width="10" height="10" class="qr-fg"/>
  <rect x="180" y="60" width="10" height="10" class="qr-fg"/>
  <rect x="200" y="60" width="10" height="10" class="qr-fg"/>
  
  <!-- Vertical -->
  <rect x="60" y="100" width="10" height="10" class="qr-fg"/>
  <rect x="60" y="120" width="10" height="10" class="qr-fg"/>
  <rect x="60" y="140" width="10" height="10" class="qr-fg"/>
  <rect x="60" y="160" width="10" height="10" class="qr-fg"/>
  <rect x="60" y="180" width="10" height="10" class="qr-fg"/>
  <rect x="60" y="200" width="10" height="10" class="qr-fg"/>
  
  <!-- Data Pattern (Simplified representation) -->
  <!-- Row 1 -->
  <rect x="100" y="20" width="10" height="10" class="qr-fg"/>
  <rect x="120" y="20" width="10" height="10" class="qr-fg"/>
  <rect x="140" y="20" width="10" height="10" class="qr-fg"/>
  <rect x="160" y="20" width="10" height="10" class="qr-fg"/>
  <rect x="180" y="20" width="10" height="10" class="qr-fg"/>
  <rect x="200" y="20" width="10" height="10" class="qr-fg"/>
  
  <!-- Row 2 -->
  <rect x="100" y="30" width="10" height="10" class="qr-fg"/>
  <rect x="130" y="30" width="10" height="10" class="qr-fg"/>
  <rect x="150" y="30" width="10" height="10" class="qr-fg"/>
  <rect x="170" y="30" width="10" height="10" class="qr-fg"/>
  <rect x="190" y="30" width="10" height="10" class="qr-fg"/>
  
  <!-- Row 3 -->
  <rect x="110" y="40" width="10" height="10" class="qr-fg"/>
  <rect x="130" y="40" width="10" height="10" class="qr-fg"/>
  <rect x="160" y="40" width="10" height="10" class="qr-fg"/>
  <rect x="180" y="40" width="10" height="10" class="qr-fg"/>
  <rect x="200" y="40" width="10" height="10" class="qr-fg"/>
  
  <!-- Row 4 -->
  <rect x="100" y="50" width="10" height="10" class="qr-fg"/>
  <rect x="120" y="50" width="10" height="10" class="qr-fg"/>
  <rect x="140" y="50" width="10" height="10" class="qr-fg"/>
  <rect x="170" y="50" width="10" height="10" class="qr-fg"/>
  <rect x="190" y="50" width="10" height="10" class="qr-fg"/>
  
  <!-- Additional data modules (simplified pattern) -->
  <!-- Middle section -->
  <rect x="100" y="80" width="10" height="10" class="qr-fg"/>
  <rect x="120" y="80" width="10" height="10" class="qr-fg"/>
  <rect x="140" y="80" width="10" height="10" class="qr-fg"/>
  <rect x="160" y="80" width="10" height="10" class="qr-fg"/>
  <rect x="180" y="80" width="10" height="10" class="qr-fg"/>
  <rect x="200" y="80" width="10" height="10" class="qr-fg"/>
  <rect x="220" y="80" width="10" height="10" class="qr-fg"/>
  <rect x="240" y="80" width="10" height="10" class="qr-fg"/>
  <rect x="260" y="80" width="10" height="10" class="qr-fg"/>
  
  <rect x="100" y="90" width="10" height="10" class="qr-fg"/>
  <rect x="130" y="90" width="10" height="10" class="qr-fg"/>
  <rect x="150" y="90" width="10" height="10" class="qr-fg"/>
  <rect x="170" y="90" width="10" height="10" class="qr-fg"/>
  <rect x="200" y="90" width="10" height="10" class="qr-fg"/>
  <rect x="230" y="90" width="10" height="10" class="qr-fg"/>
  <rect x="250" y="90" width="10" height="10" class="qr-fg"/>
  <rect x="270" y="90" width="10" height="10" class="qr-fg"/>
  
  <rect x="110" y="100" width="10" height="10" class="qr-fg"/>
  <rect x="130" y="100" width="10" height="10" class="qr-fg"/>
  <rect x="160" y="100" width="10" height="10" class="qr-fg"/>
  <rect x="180" y="100" width="10" height="10" class="qr-fg"/>
  <rect x="210" y="100" width="10" height="10" class="qr-fg"/>
  <rect x="240" y="100" width="10" height="10" class="qr-fg"/>
  <rect x="260" y="100" width="10" height="10" class="qr-fg"/>
  
  <rect x="100" y="110" width="10" height="10" class="qr-fg"/>
  <rect x="120" y="110" width="10" height="10" class="qr-fg"/>
  <rect x="140" y="110" width="10" height="10" class="qr-fg"/>
  <rect x="170" y="110" width="10" height="10" class="qr-fg"/>
  <rect x="190" y="110" width="10" height="10" class="qr-fg"/>
  <rect x="220" y="110" width="10" height="10" class="qr-fg"/>
  <rect x="250" y="110" width="10" height="10" class="qr-fg"/>
  <rect x="270" y="110" width="10" height="10" class="qr-fg"/>
  
  <!-- More data pattern rows -->
  <rect x="100" y="130" width="10" height="10" class="qr-fg"/>
  <rect x="120" y="130" width="10" height="10" class="qr-fg"/>
  <rect x="160" y="130" width="10" height="10" class="qr-fg"/>
  <rect x="180" y="130" width="10" height="10" class="qr-fg"/>
  <rect x="210" y="130" width="10" height="10" class="qr-fg"/>
  <rect x="230" y="130" width="10" height="10" class="qr-fg"/>
  <rect x="260" y="130" width="10" height="10" class="qr-fg"/>
  
  <rect x="110" y="140" width="10" height="10" class="qr-fg"/>
  <rect x="130" y="140" width="10" height="10" class="qr-fg"/>
  <rect x="150" y="140" width="10" height="10" class="qr-fg"/>
  <rect x="190" y="140" width="10" height="10" class="qr-fg"/>
  <rect x="220" y="140" width="10" height="10" class="qr-fg"/>
  <rect x="240" y="140" width="10" height="10" class="qr-fg"/>
  <rect x="270" y="140" width="10" height="10" class="qr-fg"/>
  
  <rect x="100" y="150" width="10" height="10" class="qr-fg"/>
  <rect x="140" y="150" width="10" height="10" class="qr-fg"/>
  <rect x="170" y="150" width="10" height="10" class="qr-fg"/>
  <rect x="200" y="150" width="10" height="10" class="qr-fg"/>
  <rect x="230" y="150" width="10" height="10" class="qr-fg"/>
  <rect x="250" y="150" width="10" height="10" class="qr-fg"/>
  
  <rect x="120" y="160" width="10" height="10" class="qr-fg"/>
  <rect x="140" y="160" width="10" height="10" class="qr-fg"/>
  <rect x="180" y="160" width="10" height="10" class="qr-fg"/>
  <rect x="210" y="160" width="10" height="10" class="qr-fg"/>
  <rect x="240" y="160" width="10" height="10" class="qr-fg"/>
  <rect x="260" y="160" width="10" height="10" class="qr-fg"/>
  
  <rect x="100" y="170" width="10" height="10" class="qr-fg"/>
  <rect x="130" y="170" width="10" height="10" class="qr-fg"/>
  <rect x="160" y="170" width="10" height="10" class="qr-fg"/>
  <rect x="190" y="170" width="10" height="10" class="qr-fg"/>
  <rect x="220" y="170" width="10" height="10" class="qr-fg"/>
  <rect x="270" y="170" width="10" height="10" class="qr-fg"/>
  
  <rect x="110" y="180" width="10" height="10" class="qr-fg"/>
  <rect x="140" y="180" width="10" height="10" class="qr-fg"/>
  <rect x="170" y="180" width="10" height="10" class="qr-fg"/>
  <rect x="200" y="180" width="10" height="10" class="qr-fg"/>
  <rect x="230" y="180" width="10" height="10" class="qr-fg"/>
  <rect x="250" y="180" width="10" height="10" class="qr-fg"/>
  
  <rect x="100" y="190" width="10" height="10" class="qr-fg"/>
  <rect x="120" y="190" width="10" height="10" class="qr-fg"/>
  <rect x="150" y="190" width="10" height="10" class="qr-fg"/>
  <rect x="180" y="190" width="10" height="10" class="qr-fg"/>
  <rect x="210" y="190" width="10" height="10" class="qr-fg"/>
  <rect x="240" y="190" width="10" height="10" class="qr-fg"/>
  <rect x="270" y="190" width="10" height="10" class="qr-fg"/>
  
  <!-- Bottom section -->
  <rect x="100" y="210" width="10" height="10" class="qr-fg"/>
  <rect x="130" y="210" width="10" height="10" class="qr-fg"/>
  <rect x="150" y="210" width="10" height="10" class="qr-fg"/>
  <rect x="170" y="210" width="10" height="10" class="qr-fg"/>
  <rect x="200" y="210" width="10" height="10" class="qr-fg"/>
  <rect x="220" y="210" width="10" height="10" class="qr-fg"/>
  <rect x="250" y="210" width="10" height="10" class="qr-fg"/>
  <rect x="270" y="210" width="10" height="10" class="qr-fg"/>
  
  <rect x="110" y="220" width="10" height="10" class="qr-fg"/>
  <rect x="140" y="220" width="10" height="10" class="qr-fg"/>
  <rect x="160" y="220" width="10" height="10" class="qr-fg"/>
  <rect x="190" y="220" width="10" height="10" class="qr-fg"/>
  <rect x="210" y="220" width="10" height="10" class="qr-fg"/>
  <rect x="240" y="220" width="10" height="10" class="qr-fg"/>
  <rect x="260" y="220" width="10" height="10" class="qr-fg"/>
  
  <rect x="100" y="230" width="10" height="10" class="qr-fg"/>
  <rect x="120" y="230" width="10" height="10" class="qr-fg"/>
  <rect x="150" y="230" width="10" height="10" class="qr-fg"/>
  <rect x="180" y="230" width="10" height="10" class="qr-fg"/>
  <rect x="200" y="230" width="10" height="10" class="qr-fg"/>
  <rect x="230" y="230" width="10" height="10" class="qr-fg"/>
  <rect x="270" y="230" width="10" height="10" class="qr-fg"/>
  
  <rect x="110" y="240" width="10" height="10" class="qr-fg"/>
  <rect x="130" y="240" width="10" height="10" class="qr-fg"/>
  <rect x="160" y="240" width="10" height="10" class="qr-fg"/>
  <rect x="190" y="240" width="10" height="10" class="qr-fg"/>
  <rect x="220" y="240" width="10" height="10" class="qr-fg"/>
  <rect x="250" y="240" width="10" height="10" class="qr-fg"/>
  
  <rect x="100" y="250" width="10" height="10" class="qr-fg"/>
  <rect x="140" y="250" width="10" height="10" class="qr-fg"/>
  <rect x="170" y="250" width="10" height="10" class="qr-fg"/>
  <rect x="200" y="250" width="10" height="10" class="qr-fg"/>
  <rect x="230" y="250" width="10" height="10" class="qr-fg"/>
  <rect x="260" y="250" width="10" height="10" class="qr-fg"/>
  
  <rect x="120" y="260" width="10" height="10" class="qr-fg"/>
  <rect x="150" y="260" width="10" height="10" class="qr-fg"/>
  <rect x="180" y="260" width="10" height="10" class="qr-fg"/>
  <rect x="210" y="260" width="10" height="10" class="qr-fg"/>
  <rect x="240" y="260" width="10" height="10" class="qr-fg"/>
  <rect x="270" y="260" width="10" height="10" class="qr-fg"/>
  
  <rect x="100" y="270" width="10" height="10" class="qr-fg"/>
  <rect x="130" y="270" width="10" height="10" class="qr-fg"/>
  <rect x="160" y="270" width="10" height="10" class="qr-fg"/>
  <rect x="190" y="270" width="10" height="10" class="qr-fg"/>
  <rect x="220" y="270" width="10" height="10" class="qr-fg"/>
  <rect x="250" y="270" width="10" height="10" class="qr-fg"/>
  
  <!-- Text label -->
  <text x="150" y="295" text-anchor="middle" fill="#000000" font-family="Arial" font-size="8">
    スペースインベーダー
  </text>
</svg>